<?xml version="1.0" encoding="UTF-8" standalone="no"?>
<!-- Generator: Adobe Illustrator 16.0.0, SVG Export Plug-In . SVG Version: 6.00 Build 0)  -->

<svg
   xmlns:dc="http://purl.org/dc/elements/1.1/"
   xmlns:cc="http://creativecommons.org/ns#"
   xmlns:rdf="http://www.w3.org/1999/02/22-rdf-syntax-ns#"
   xmlns:svg="http://www.w3.org/2000/svg"
   xmlns="http://www.w3.org/2000/svg"
   xmlns:sodipodi="http://sodipodi.sourceforge.net/DTD/sodipodi-0.dtd"
   xmlns:inkscape="http://www.inkscape.org/namespaces/inkscape"
   version="1.1"
   id="Layer_1"
   x="0px"
   y="0px"
   width="22"
   height="22"
   viewBox="0 0 22 22"
   enable-background="new 0 0 466 423.891"
   xml:space="preserve"
   inkscape:version="0.91 r13725"
   sodipodi:docname="indicator-docker.svg"><metadata
     id="metadata41"><rdf:RDF><cc:Work
         rdf:about=""><dc:format>image/svg+xml</dc:format><dc:type
           rdf:resource="http://purl.org/dc/dcmitype/StillImage" /><dc:title /></cc:Work></rdf:RDF></metadata><defs
     id="defs39" /><sodipodi:namedview
     pagecolor="#ffffff"
     bordercolor="#666666"
     borderopacity="1"
     objecttolerance="10"
     gridtolerance="10"
     guidetolerance="10"
     inkscape:pageopacity="0"
     inkscape:pageshadow="2"
     inkscape:window-width="1623"
     inkscape:window-height="1029"
     id="namedview37"
     showgrid="false"
     inkscape:zoom="49.335278"
     inkscape:cx="10.99961"
     inkscape:cy="10.816613"
     inkscape:window-x="201"
     inkscape:window-y="21"
     inkscape:window-maximized="1"
     inkscape:current-layer="Layer_1"
     inkscape:snap-smooth-nodes="true"
     inkscape:object-nodes="true" /><rect
     x="-43.5"
     y="-364.88599"
     display="none"
     width="792"
     height="612"
     id="rect3"
     style="clip-rule:evenodd;display:none;fill:#e7e7e7;fill-rule:evenodd" /><path
     style="clip-rule:evenodd;fill-rule:evenodd"
     d="M 9.4505246,4.2026716 C 9.2100361,4.2028101 9.0151162,4.39773 9.0149778,4.6382185 l 0,1.6382809 -3.7547523,0 C 5.019737,6.2766379 4.8248172,6.4715578 4.8246787,6.7120463 l 0,1.5956374 -1.6894532,0 C 2.894737,8.3078222 2.6998172,8.5027421 2.6996787,8.7432306 l 0,1.5145814 -2.03952245,0 c -0.225287,2.21e-4 -0.41327096,0.172116 -0.43359375,0.396485 l -0.0292969,0.318359 c -0.10597986,1.138602 0.0499264,2.291847 0.52734376,3.347656 l 0.005859,0.01367 0.19140664,0.388674 c 0.006018,0.01135 0.0125347,0.02243 0.0195313,0.0332 l 0.0175781,0.0293 0.001953,0.002 0.001953,0.0039 c 1.3974809,2.367404 3.8769838,3.373046 6.4921875,3.373046 4.8889171,0 9.0243911,-2.211009 10.9785161,-6.765624 1.245494,-0.0052 2.551737,-0.436977 3.197265,-1.695313 L 21.785156,9.4042969 C 21.891399,9.1981413 21.817571,8.9448918 21.617188,8.828125 L 21.326172,8.6582031 C 20.603332,8.2409891 19.733785,8.1967565 18.921875,8.3476562 18.697396,7.5293394 18.205506,6.8193362 17.582031,6.3183594 L 17.316406,6.1054688 C 17.134227,5.9587585 16.868719,5.9820334 16.714844,6.1582028 l -0.22461,0.2578125 -0.002,0.00195 c -0.576954,0.6672514 -0.694745,1.615653 -0.625,2.3710937 0.03541,0.3826183 0.160039,0.7632491 0.335938,1.1269531 -0.08981,0.038111 -0.175842,0.088088 -0.261719,0.1171879 -0.425676,0.144219 -0.891827,0.22461 -1.335938,0.224608 l -1.16745,0 0,-1.5145809 C 13.433924,8.5027582 13.239033,8.307848 12.998565,8.3076837 l -1.689453,0 0,-3.6694652 C 11.308973,4.3977299 11.114053,4.20281 10.873565,4.2026716 Z"
     id="path5113"
     inkscape:connector-curvature="0"
     sodipodi:nodetypes="cccccccccccccccccccsccccccccccccccsccccccc" /><g
     style="display:none"
     id="g8"
     display="none"
     transform="matrix(0.04507078,0,0,0.04507078,0.48942142,0.92735673)"><path
       style="display:inline;fill:#394d54"
       inkscape:connector-curvature="0"
       id="path10"
       d="m 61.093,319.89 c 6.023,0 11.763,-0.157 17.219,-0.464 0.476,-0.026 0.932,-0.063 1.402,-0.092 0.005,-0.002 0.008,-0.002 0.012,-0.002 13.872,-0.855 25.876,-2.708 35.902,-5.57 0.002,-0.002 0.004,-0.002 0.006,-0.002 1.823,-0.521 3.588,-1.07 5.282,-1.656 1.894,-0.657 2.896,-2.725 2.241,-4.618 -0.656,-1.895 -2.722,-2.899 -4.618,-2.24 -12.734,4.412 -29.535,6.842 -50.125,7.298 -0.002,0 -0.004,0 -0.005,0 -10.477,0.232 -21.93,-0.044 -34.352,-0.843 0,0 0,0 -0.001,0 -0.635,-0.038 -1.259,-0.075 -1.9,-0.118 -1.995,-0.128 -3.731,1.374 -3.869,3.375 -0.136,1.999 1.376,3.73 3.375,3.866 2.537,0.173 5.03,0.321 7.49,0.453 0.392,0.021 0.77,0.034 1.158,0.054 l 0,0 c 7.256,0.366 14.194,0.559 20.783,0.559 z"
       display="inline" /></g><path
     style="clip-rule:evenodd;fill:none;fill-rule:evenodd;stroke:#ffffff;stroke-width:0.53284979;stroke-miterlimit:4;stroke-dasharray:none;stroke-opacity:1"
     inkscape:connector-curvature="0"
     id="path31"
     d="m 6.6834148,13.566614 c 0.3555816,0 0.6438169,0.288407 0.6438169,0.643874 0,0.355581 -0.2882353,0.643818 -0.6438169,0.643818 -0.3556388,0 -0.6438742,-0.288237 -0.6438742,-0.643818 0,-0.355467 0.2882354,-0.643874 0.6438742,-0.643874" /><path
     sodipodi:type="inkscape:offset"
     inkscape:radius="0.22757444"
     inkscape:original="M 5.7011719 15.068359 C 5.233788 15.201813 4.6722463 15.287621 4.0195312 15.324219 C 3.7735801 15.338059 3.5136488 15.345703 3.2421875 15.345703 C 2.9293061 15.345703 2.6000499 15.336789 2.2539062 15.318359 C 3.4077182 16.471495 4.8268207 17.358684 7.4550781 17.375 C 7.6491079 17.374955 7.841472 17.370521 8.0332031 17.363281 C 6.7750072 16.766228 6.0854454 15.954405 5.7011719 15.068359 z "
     style="fill:#ffffff"
     id="path4181"
     d="m 5.6933594,14.841797 a 0.2275972,0.2275972 0 0 0 -0.054687,0.0078 c -0.445874,0.127313 -0.9926647,0.212154 -1.6328125,0.248047 -0.2416642,0.0136 -0.4964827,0.01953 -0.7636719,0.01953 -0.308559,0 -0.6341796,-0.0072 -0.9765625,-0.02539 A 0.2275972,0.2275972 0 0 0 2.09375,15.478516 c 1.1785233,1.177832 2.680416,2.108369 5.359375,2.125 a 0.2275972,0.2275972 0 0 0 0.00195,0 c 0.197462,-4.6e-5 0.3919719,-0.0063 0.5859375,-0.01367 a 0.2275972,0.2275972 0 0 0 0.089844,-0.431641 C 6.915753,16.581597 6.2750775,15.81994 5.9101562,14.978516 A 0.2275972,0.2275972 0 0 0 5.6933594,14.841797 Z" /><rect
     inkscape:tile-y0="8.3826761"
     inkscape:tile-x0="2.3157895"
     ry="0.24605282"
     y="8.7466173"
     x="3.1204259"
     height="1.5149124"
     width="1.5245614"
     id="use5063"
     style="opacity:1;fill:#ffffff;fill-opacity:1;stroke:none;stroke-width:1.56299996;stroke-miterlimit:4;stroke-dasharray:none;stroke-opacity:1" /><rect
     inkscape:tile-y0="8.3826761"
     inkscape:tile-x0="2.3157895"
     ry="0.24605282"
     y="6.6636124"
     x="5.2166982"
     height="1.5149124"
     width="1.5245614"
     id="use5067"
     style="opacity:1;fill:#ffffff;fill-opacity:1;stroke:none;stroke-width:1.56299996;stroke-miterlimit:4;stroke-dasharray:none;stroke-opacity:1" /><rect
     inkscape:tile-y0="8.3826761"
     inkscape:tile-x0="2.3157895"
     ry="0.24605282"
     y="8.7466173"
     x="5.2166982"
     height="1.5149124"
     width="1.5245614"
     id="use5069"
     style="opacity:1;fill:#ffffff;fill-opacity:1;stroke:none;stroke-width:1.56299996;stroke-miterlimit:4;stroke-dasharray:none;stroke-opacity:1" /><rect
     inkscape:tile-y0="8.3826761"
     inkscape:tile-x0="2.3157895"
     ry="0.24605282"
     y="6.6636124"
     x="7.3129702"
     height="1.5149124"
     width="1.5245614"
     id="use5073"
     style="opacity:1;fill:#ffffff;fill-opacity:1;stroke:none;stroke-width:1.56299996;stroke-miterlimit:4;stroke-dasharray:none;stroke-opacity:1" /><rect
     inkscape:tile-y0="8.3826761"
     inkscape:tile-x0="2.3157895"
     ry="0.24605282"
     y="8.7466173"
     x="7.3129702"
     height="1.5149124"
     width="1.5245614"
     id="use5075"
     style="opacity:1;fill:#ffffff;fill-opacity:1;stroke:none;stroke-width:1.56299996;stroke-miterlimit:4;stroke-dasharray:none;stroke-opacity:1" /><rect
     inkscape:tile-y0="8.3826761"
     inkscape:tile-x0="2.3157895"
     ry="0.24605282"
     y="4.5806079"
     x="9.4092417"
     height="1.5149124"
     width="1.5245614"
     id="use5077"
     style="opacity:1;fill:#ffffff;fill-opacity:1;stroke:none;stroke-width:1.56299996;stroke-miterlimit:4;stroke-dasharray:none;stroke-opacity:1" /><rect
     inkscape:tile-y0="8.3826761"
     inkscape:tile-x0="2.3157895"
     ry="0.24605282"
     y="6.6636124"
     x="9.4092417"
     height="1.5149124"
     width="1.5245614"
     id="use5079"
     style="opacity:1;fill:#ffffff;fill-opacity:1;stroke:none;stroke-width:1.56299996;stroke-miterlimit:4;stroke-dasharray:none;stroke-opacity:1" /><rect
     inkscape:tile-y0="8.3826761"
     inkscape:tile-x0="2.3157895"
     ry="0.24605282"
     y="8.7466173"
     x="9.4092417"
     height="1.5149124"
     width="1.5245614"
     id="use5081"
     style="opacity:1;fill:#ffffff;fill-opacity:1;stroke:none;stroke-width:1.56299996;stroke-miterlimit:4;stroke-dasharray:none;stroke-opacity:1" /><rect
     inkscape:tile-y0="8.3826761"
     inkscape:tile-x0="2.3157895"
     ry="0.24605282"
     y="8.7466173"
     x="11.505513"
     height="1.5149124"
     width="1.5245614"
     id="use5087"
     style="opacity:1;fill:#ffffff;fill-opacity:1;stroke:none;stroke-width:1.56299996;stroke-miterlimit:4;stroke-dasharray:none;stroke-opacity:1" /></svg>