<?xml version="1.0" encoding="UTF-8" standalone="no"?>
<!-- Generator: Adobe Illustrator 16.0.0, SVG Export Plug-In . SVG Version: 6.00 Build 0)  -->

<svg
   xmlns:dc="http://purl.org/dc/elements/1.1/"
   xmlns:cc="http://creativecommons.org/ns#"
   xmlns:rdf="http://www.w3.org/1999/02/22-rdf-syntax-ns#"
   xmlns:svg="http://www.w3.org/2000/svg"
   xmlns="http://www.w3.org/2000/svg"
   xmlns:sodipodi="http://sodipodi.sourceforge.net/DTD/sodipodi-0.dtd"
   xmlns:inkscape="http://www.inkscape.org/namespaces/inkscape"
   version="1.1"
   id="Layer_1"
   x="0px"
   y="0px"
   width="22"
   height="22"
   viewBox="0 0 22 22"
   enable-background="new 0 0 466 423.891"
   xml:space="preserve"
   inkscape:version="0.91 r13725"
   sodipodi:docname="indicator-docker.svg"><metadata
     id="metadata41"><rdf:RDF><cc:Work
         rdf:about=""><dc:format>image/svg+xml</dc:format><dc:type
           rdf:resource="http://purl.org/dc/dcmitype/StillImage" /><dc:title></dc:title></cc:Work></rdf:RDF></metadata><defs
     id="defs39" /><sodipodi:namedview
     pagecolor="#d2d2d2"
     bordercolor="#7f7f7f"
     borderopacity="1"
     objecttolerance="10"
     gridtolerance="10"
     guidetolerance="10"
     inkscape:pageopacity="1"
     inkscape:pageshadow="2"
     inkscape:window-width="1623"
     inkscape:window-height="1029"
     id="namedview37"
     showgrid="false"
     inkscape:zoom="1"
     inkscape:cx="11"
     inkscape:cy="11"
     inkscape:window-x="201"
     inkscape:window-y="21"
     inkscape:window-maximized="1"
     inkscape:current-layer="Layer_1"
     inkscape:snap-smooth-nodes="false"
     inkscape:object-nodes="false" /><rect
     x="-43.5"
     y="-364.88599"
     display="none"
     width="792"
     height="612"
     id="rect3"
     style="clip-rule:evenodd;display:none;fill:#e7e7e7;fill-rule:evenodd" /><path
     style="clip-rule:evenodd;fill:#3c3c3c;fill-opacity:1;fill-rule:evenodd"
     d="M 9.4511719,4.203125 C 9.2106834,4.2032635 9.0157634,4.3981834 9.015625,4.6386719 l 0,1.6386719 -3.7558594,0 C 5.0192771,6.2774823 4.8243573,6.4724021 4.8242188,6.7128906 l 0,1.5957032 -1.6894532,0 C 2.8942771,8.3087323 2.6993571,8.5036521 2.6992188,8.7441406 l 0,1.5136714 -2.03906255,0 c -0.225287,2.21e-4 -0.41327096,0.172116 -0.43359375,0.396485 l -0.0292969,0.318359 c -0.1059798,1.138602 0.0499264,2.291849 0.52734376,3.347656 l 0.005859,0.01367 0.19140625,0.388672 c 0.006018,0.01135 0.0125346,0.02243 0.0195313,0.0332 l 0.0175781,0.0293 0.001953,0.002 0.001953,0.0039 c 1.39748089,2.367404 3.87698379,3.373047 6.49218749,3.373046 4.8889165,0 9.0243905,-2.21101 10.9785155,-6.765624 1.245494,-0.0052 2.551737,-0.436977 3.197265,-1.695313 L 21.785156,9.4042969 C 21.891399,9.1981413 21.817571,8.9448918 21.617188,8.828125 L 21.326172,8.6582031 C 20.603332,8.2409891 19.733785,8.1967565 18.921875,8.3476562 18.697396,7.5293405 18.205506,6.8193362 17.582031,6.3183594 L 17.316406,6.1054688 C 17.134227,5.9587585 16.868719,5.9820337 16.714844,6.1582031 l -0.22461,0.2578125 -0.002,0.00195 c -0.576954,0.6672514 -0.694745,1.615653 -0.625,2.3710937 0.03541,0.3826183 0.160039,0.7632491 0.335938,1.1269531 -0.08981,0.038111 -0.175842,0.088087 -0.261719,0.1171876 -0.425676,0.144219 -0.891827,0.224612 -1.335938,0.224609 l -1.167968,0 0,-1.5136716 c -9.4e-5,-0.2404657 -0.195032,-0.4353796 -0.4355,-0.4355436 l -1.689453,0 0,-3.6699219 C 11.308455,4.3981833 11.113535,4.2032634 10.873047,4.203125 Z m 0.3847656,0.6425781 0.6718745,0 c 0.0886,0 0.160157,0.071553 0.160157,0.1601563 l 0,0.6640625 c 0,0.088604 -0.07155,0.1601562 -0.160157,0.1601562 l -0.6718745,0 c -0.088604,0 -0.1601563,-0.071553 -0.1601563,-0.1601562 l 0,-0.6640625 c 0,-0.088604 0.071553,-0.1601563 0.1601563,-0.1601563 z m -4.1933594,2.0839844 0.671875,0 c 0.088604,0 0.1601563,0.0696 0.1601563,0.1582031 l 0,0.6660156 c 0,0.088604 -0.071553,0.1601563 -0.1601563,0.1601563 l -0.671875,0 c -0.088604,0 -0.1582031,-0.071553 -0.1582031,-0.1601563 l 0,-0.6660156 c 0,-0.088604 0.0696,-0.1582031 0.1582031,-0.1582031 z m 2.0976563,0 0.6699218,0 c 0.088605,0 0.1601563,0.0696 0.1601563,0.1582031 l 0,0.6660156 c 0,0.088604 -0.071552,0.1601563 -0.1601563,0.1601563 l -0.6699218,0 c -0.088604,0 -0.1601563,-0.071553 -0.1601563,-0.1601563 l 0,-0.6660156 c 0,-0.088604 0.071553,-0.1582031 0.1601563,-0.1582031 z m 2.0957031,0 0.6718745,0 c 0.0886,0 0.160157,0.0696 0.160157,0.1582031 l 0,0.6660156 c 0,0.088604 -0.07155,0.1601563 -0.160157,0.1601563 l -0.6718745,0 c -0.088604,0 -0.1601563,-0.071553 -0.1601563,-0.1601563 l 0,-0.6660156 c 0,-0.088604 0.071553,-0.1582031 0.1601563,-0.1582031 z m -6.2890625,2.0820313 0.671875,0 c 0.088604,0 0.1601563,0.071553 0.1601562,0.1601562 l 0,0.6640625 c 0,0.088603 -0.071553,0.1601563 -0.1601562,0.1601563 l -0.671875,0 c -0.088604,0 -0.1601562,-0.071553 -0.1601562,-0.1601563 l 0,-0.6640625 c 0,-0.088603 0.071553,-0.1601562 0.1601562,-0.1601562 z m 2.0957031,0 0.671875,0 c 0.088604,0 0.1601563,0.071553 0.1601563,0.1601562 l 0,0.6640625 c 0,0.088603 -0.071553,0.1601563 -0.1601563,0.1601563 l -0.671875,0 c -0.088604,0 -0.1582031,-0.071553 -0.1582031,-0.1601563 l 0,-0.6640625 c 0,-0.088603 0.0696,-0.1601562 0.1582031,-0.1601562 z m 2.0976563,0 0.6699218,0 c 0.088604,0 0.1601563,0.071553 0.1601563,0.1601562 l 0,0.6640625 c 0,0.088603 -0.071553,0.1601563 -0.1601563,0.1601563 l -0.6699218,0 c -0.088604,0 -0.1601563,-0.071553 -0.1601563,-0.1601563 l 0,-0.6640625 c 0,-0.088603 0.071553,-0.1601562 0.1601563,-0.1601562 z m 2.0957031,0 0.6718745,0 c 0.0886,0 0.160157,0.071553 0.160157,0.1601562 l 0,0.6640625 c 0,0.088603 -0.07155,0.1601563 -0.160157,0.1601563 l -0.6718745,0 c -0.088604,0 -0.1601563,-0.071553 -0.1601563,-0.1601563 l 0,-0.6640625 c 0,-0.088603 0.071553,-0.1601562 0.1601563,-0.1601562 z m 2.0957035,0 0.671875,0 c 0.0886,0 0.160156,0.071553 0.160156,0.1601562 l 0,0.6640625 c 0,0.088603 -0.07155,0.1601563 -0.160156,0.1601563 l -0.671875,0 c -0.0886,0 -0.160157,-0.071553 -0.160157,-0.1601563 l 0,-0.6640625 c 0,-0.088603 0.07155,-0.1601562 0.160157,-0.1601562 z M 7.8320312,11.707031 c 0.6011988,0 1.0878907,0.486887 1.0878907,1.087891 0,0.601198 -0.4866919,1.089844 -1.0878907,1.089844 -0.6012954,0 -1.0878906,-0.488646 -1.0878906,-1.089844 0,-0.601004 0.4865952,-1.087891 1.0878906,-1.087891 z m -1.3710937,1.902344 c 0.1313575,-0.0047 0.2522868,0.07086 0.3046875,0.191406 0.5126928,1.182151 1.4119917,2.252405 3.1191406,3.0625 0.2968324,0.145794 0.2053524,0.590219 -0.125,0.605469 -0.3275722,0.05146 -0.4571552,0.07613 -0.9145601,0.135536 -4.1937601,0.463946 -6.1864682,-1.416936 -7.4409086,-3.100385 -0.2027941,-0.206878 -0.049217,-0.554858 0.2402343,-0.542968 0.4810278,0.02555 0.9395398,0.03516 1.3730469,0.03516 0.375385,0 0.7327417,-0.0082 1.0722657,-0.02734 0.8993697,-0.05043 1.6684952,-0.170742 2.2949218,-0.349609 0.025071,-0.0068 0.050211,-0.0092 0.076172,-0.0098 z"
     id="path5113"
     inkscape:connector-curvature="0"
     sodipodi:nodetypes="cccccccccccccccccccsccccccccccccccscccccccsssssssssssssssssssssssssssssssssssssssssssssssssssssssssssssssssssssssssssssssssssssscccccccscccc" /><g
     style="display:none"
     id="g8"
     display="none"
     transform="matrix(0.04507078,0,0,0.04507078,0.48942142,0.92735673)"><path
       style="display:inline;fill:#394d54"
       inkscape:connector-curvature="0"
       id="path10"
       d="m 61.093,319.89 c 6.023,0 11.763,-0.157 17.219,-0.464 0.476,-0.026 0.932,-0.063 1.402,-0.092 0.005,-0.002 0.008,-0.002 0.012,-0.002 13.872,-0.855 25.876,-2.708 35.902,-5.57 0.002,-0.002 0.004,-0.002 0.006,-0.002 1.823,-0.521 3.588,-1.07 5.282,-1.656 1.894,-0.657 2.896,-2.725 2.241,-4.618 -0.656,-1.895 -2.722,-2.899 -4.618,-2.24 -12.734,4.412 -29.535,6.842 -50.125,7.298 -0.002,0 -0.004,0 -0.005,0 -10.477,0.232 -21.93,-0.044 -34.352,-0.843 0,0 0,0 -0.001,0 -0.635,-0.038 -1.259,-0.075 -1.9,-0.118 -1.995,-0.128 -3.731,1.374 -3.869,3.375 -0.136,1.999 1.376,3.73 3.375,3.866 2.537,0.173 5.03,0.321 7.49,0.453 0.392,0.021 0.77,0.034 1.158,0.054 l 0,0 c 7.256,0.366 14.194,0.559 20.783,0.559 z"
       display="inline" /></g></svg>